<?xml version="1.0" encoding="utf-8"?>
<!-- Generator: Adobe Illustrator 25.4.1, SVG Export Plug-In . SVG Version: 6.00 Build 0)  -->
<svg version="1.1" id="Capa_1" xmlns="http://www.w3.org/2000/svg" xmlns:xlink="http://www.w3.org/1999/xlink" x="0px" y="0px"
	 viewBox="0 0 69.6 20" style="enable-background:new 0 0 69.6 20;" xml:space="preserve">
<style type="text/css">
	.st0{fill:#5E2E1C;}
	.st1{fill:#F9C145;}
	.st2{fill:#F49B2E;}
</style>
<g>
	<g id="Capa_1_00000134965537756885279480000003702685016314882229_">
		<path class="st0" d="M8.1,20c6.1,0.2,12.1-0.1,18.2-0.2c6.1-0.2,12.2,0,18.4-0.4c3.1-0.2,6.2-0.4,9.2-0.7c2.4-0.1,4.8-0.4,7.1-1.1
			c2.3-0.7,4.5-2,6.3-3.7c0.9-0.9,1.6-2.1,1.9-3.3c0.2-0.3,0.3-0.5,0.4-0.8c0.5-1.8-0.2-3.9-1-5.6c-0.6-1.5-1.4-3.3-3.3-3.9
			c-1.9-0.6-4.2,0.1-6.1,0.6c-2.8,0.8-5.7,1.2-8.6,1.6c-7.3,1.2-14.8,2.3-22.2,2.8c-5.5,0.4-11.1,0.4-16.5,0.5
			c-0.1-0.3-0.3-0.5-0.5-0.5C8.2,5.4,3,4,1.5,7.2c-0.6,1.7-1,3.5-1.2,5.3c-0.2,1-0.6,2.3,0.2,3.2c0,1.1,0.3,2.1,1,2.9
			C2.8,20.3,6,19.9,8.1,20z"/>
		<path class="st1" d="M1.3,12.4c0.2-1,0.3-1.9,0.5-2.8C2,8.6,2.4,7.8,3,7.1c0.8-0.5,1.7-0.7,2.6-0.7l0.2,0c0,0.1,0.1,0.1,0.2,0.1
			c6,0,12,0.2,17.9,0C29.8,6.3,35.6,5.8,41.5,5c3-0.4,6-0.8,8.9-1.3c2.7-0.4,5.5-0.8,8.1-1.5c1.9-0.5,4.1-1.4,6.2-1.1
			c2.1,0.3,2.8,2.6,3.4,4.1c0.5,1.5,1.3,4-0.3,5.1c-1,0.5-2,0.8-3.1,0.9c-1.3,0.2-2.7,0.3-4,0.4c-5.9,0.6-11.8,1.4-17.7,2
			c-12.1,1.3-24.2,1.8-36.4,1.6c-1.2,0-2.5,0-3.7,0c-0.4,0-0.8,0-1.1-0.1c0.2-0.4-0.3-1.1-0.7-0.7C0.9,13.8,1.1,13.1,1.3,12.4z"/>
		<path class="st1" d="M14.4,8.4C21.3,8.5,28.2,8,35,7.5c3.4-0.3,6.7-0.6,10.1-1c2.8-0.3,5.5-0.8,8.2-1.4c2.2-0.6,4.3-1.4,6.5-1.8
			c1.8-0.4,4-0.7,5.7,0c1.3,0.7,2.4,1.9,3,3.3c-0.1-0.4-0.3-0.8-0.4-1.2c-0.6-1.5-1.3-3.8-3.4-4.2s-4.3,0.6-6.2,1.1
			c-2.6,0.7-5.4,1-8.1,1.5c-3,0.5-5.9,0.9-8.9,1.3c-5.8,0.8-11.7,1.3-17.6,1.5c-6,0.1-12-0.1-17.9,0c-0.1,0-0.1,0-0.2-0.1l-0.2,0
			C4.6,6.3,3.7,6.6,2.9,7.1C2.7,7.3,2.4,7.7,2.3,8C6.3,8.2,10.4,8.4,14.4,8.4z"/>
		<path class="st2" d="M2.1,18.1c-0.4-0.5-0.7-1.2-0.7-1.8c0.5,0.1,0.9,0.2,1.4,0.2c1.2,0.1,2.4,0,3.6,0c3.4,0,6.8,0,10.2,0
			c6.6-0.1,13.3-0.4,19.9-0.9S49.5,14,56,13.3c3-0.3,6-0.5,9.1-0.9c1-0.1,1.9-0.4,2.8-0.8c-0.3,0.5-0.6,0.9-1,1.3
			c-1.5,1.5-3.4,2.7-5.4,3.4c-2,0.7-4,1.1-6.1,1.2c-2.6,0.2-5.3,0.4-7.9,0.6c-5.5,0.4-10.9,0.4-16.4,0.5C25.9,18.7,20.6,19,15.4,19
			c-3,0-6.1,0-9.1-0.1C4.9,18.9,3,19.1,2.1,18.1z"/>
	</g>
</g>
</svg>
