<svg xmlns="http://www.w3.org/2000/svg" viewBox="0 0 23.72 69.2"><defs><style>.cls-1{isolation:isolate;}.cls-2{fill:#5e2e1c;}.cls-3,.cls-4{fill:#f9c145;}.cls-4{mix-blend-mode:screen;}.cls-5{fill:#f49b2e;}</style></defs><g class="cls-1"><g id="Capa_1" data-name="Capa 1"><path class="cls-2" d="M42.46,69.26c-.22-6.07-.86-12.1-1.42-18.13s-.82-12.22-1.59-18.31c-.38-3.06-.84-6.11-1.3-9.17a31.76,31.76,0,0,0-1.51-7,16,16,0,0,0-4.11-6,7.29,7.29,0,0,0-3.44-1.68,2.88,2.88,0,0,0-.85-.32c-1.84-.34-3.85.47-5.5,1.32-1.44.73-3.2,1.6-3.67,3.5s.36,4.22,1,6.06c.93,2.76,1.55,5.64,2.2,8.48C23.92,35.24,25.49,42.6,26.48,50c.73,5.45,1.14,11,1.59,16.43a.61.61,0,0,0-.45.56c.33,3.1-.74,8.37,2.54,9.68a21.05,21.05,0,0,0,5.33.87c1,.12,2.33.42,3.14-.4A4.51,4.51,0,0,0,41.5,76C43.16,74.53,42.54,71.33,42.46,69.26Z" transform="translate(-18.92 -8.53)"/><path class="cls-3" d="M35.31,76.51c-1-.1-1.9-.18-2.84-.34a5,5,0,0,1-2.57-1,4.3,4.3,0,0,1-.85-2.56v-.18a.24.24,0,0,0,.08-.19c-.43-6-.62-11.94-1.15-17.89a167.07,167.07,0,0,0-2.64-17.46q-.87-4.42-1.86-8.82c-.61-2.67-1.12-5.42-2-8C20.88,18.22,19.85,16.07,20,14s2.44-3,3.91-3.63,3.9-1.58,5.16,0a7,7,0,0,1,1.09,3.05c.26,1.32.48,2.67.7,4C31.84,23.27,33,29.11,34.05,35A292.5,292.5,0,0,1,38,71.2c.07,1.22.16,2.45.19,3.67a5.56,5.56,0,0,1,0,1.14c-.39-.17-1.06.35-.69.73A7.53,7.53,0,0,1,35.31,76.51Z" transform="translate(-18.92 -8.53)"/><path class="cls-4" d="M30.53,63.65c-.35-6.83-1.32-13.67-2.3-20.42-.49-3.35-1-6.68-1.67-10a60.78,60.78,0,0,0-1.93-8.07C23.89,23.05,23,21,22.42,18.8c-.49-1.76-1-3.91-.36-5.73a6.57,6.57,0,0,1,3.07-3.19c-.42.15-.82.31-1.18.46C22.48,11,20.24,11.87,20,14s.84,4.25,1.47,6.16c.84,2.57,1.35,5.32,2,8q1,4.39,1.86,8.82A167.07,167.07,0,0,1,28,54.4c.53,6,.72,11.93,1.15,17.89a.24.24,0,0,1-.08.19v.18a4.3,4.3,0,0,0,.85,2.56,2.9,2.9,0,0,0,1,.58C30.79,71.75,30.74,67.7,30.53,63.65Z" transform="translate(-18.92 -8.53)"/><path class="cls-5" d="M40.94,75.37a3,3,0,0,1-1.78.83,5.31,5.31,0,0,0,.11-1.43c0-1.18-.12-2.37-.18-3.56q-.26-5.1-.68-10.19c-.54-6.61-1.22-13.23-2.21-19.76s-2.36-12.95-3.49-19.44c-.52-3-.91-6-1.51-9a8.36,8.36,0,0,0-.95-2.71,7.44,7.44,0,0,1,1.39.92,15.79,15.79,0,0,1,3.77,5.15A22.2,22.2,0,0,1,37,22.23q.6,3.91,1.14,7.84c.75,5.43,1.12,10.83,1.54,16.3.39,5.22.95,10.41,1.36,15.64.23,3,.4,6.05.47,9.08C41.56,72.45,41.94,74.37,40.94,75.37Z" transform="translate(-18.92 -8.53)"/></g></g></svg>